<svg xmlns="http://www.w3.org/2000/svg" width="129" height="64" viewBox="0 0 129 64">
<defs>
    <style>
      .cls-1 {
        fill: #0c58c1;
        fill-rule: evenodd;
      }
    </style>
  </defs>
  <path id="logo_copy_3_копия_2" data-name="logo copy 3 копия 2" class="cls-1" d="M118.638,257.151V237.658h6.3v1.8h-3.519v6.618h1.432a2.5,2.5,0,0,1,.532.041,2.129,2.129,0,0,1,.7.121,2.4,2.4,0,0,1,1.022.722,2.869,2.869,0,0,1,.45,1.765v5.733a2.61,2.61,0,0,1-.041.522,2.027,2.027,0,0,1-.122.683,2.252,2.252,0,0,1-.737,1.042,2.808,2.808,0,0,1-1.84.442h-4.172Zm2.78-1.806h0.574a0.684,0.684,0,0,0,.531-0.2,1.176,1.176,0,0,0,.206-0.723v-5.455a1.654,1.654,0,0,0-.124-0.723,0.68,0.68,0,0,0-.327-0.279c-0.041-.04-0.123-0.04-0.164-0.081h-0.7v7.46h0Zm10.39-12.674-0.818,11.791c0,0.163-.041.322-0.041,0.522a2.351,2.351,0,0,1-.081.522,2.858,2.858,0,0,1-.655,1.364,2.622,2.622,0,0,1-1.882.561l-1.473.041v-1.846a1.431,1.431,0,0,0,.819-0.2A1.03,1.03,0,0,0,128,254.9a1.207,1.207,0,0,0,.081-0.322c0-.12.042-0.2,0.042-0.28l1.553-16.644h4.5l1.349,19.493h-2.9l-0.533-14.48h-0.286Zm5.031,14.48,2.086-19.493h4.254l1.963,19.493h-2.781l-0.45-5.415h-1.923l-0.408,5.415h-2.741Zm3.272-7.22h1.636l-0.737-9.907h-0.122l-0.777,9.907h0Zm6.012,7.22V237.658h5.728v1.8h-2.906v17.689h-2.822Zm7.036-2.607V240.465a3.46,3.46,0,0,1,.04-0.6,3.01,3.01,0,0,1,.123-0.842,3.12,3.12,0,0,1,.694-1.163,2.448,2.448,0,0,1,1.678-.522h1.882a2.254,2.254,0,0,1,1.635.522,2.675,2.675,0,0,1,.737,1.121,3,3,0,0,1,.122.844,3.3,3.3,0,0,1,.042.6v14.64c0,0.159-.042.32-0.042,0.48a2.74,2.74,0,0,1-.572,1.324,2.535,2.535,0,0,1-1.922.561l-1.882.041a0.305,0.305,0,0,0-.163-0.041h-0.082a2.91,2.91,0,0,1-1.554-.442c-0.491-.32-0.736-1.121-0.736-2.445h0Zm2.821-14.719v15.241a0.642,0.642,0,0,0,.205.44,0.516,0.516,0,0,0,.451.161,0.658,0.658,0,0,0,.489-0.161,0.841,0.841,0,0,0,.165-0.481v-15.2a0.489,0.489,0,0,0-.165-0.44,0.625,0.625,0,0,0-.326-0.242h-0.163a0.53,0.53,0,0,0-.451.2,0.559,0.559,0,0,0-.205.4v0.08h0Zm10.431,10.509h2.822v4.329c0,0.161-.041.321-0.041,0.562a3.845,3.845,0,0,1-.083.643,1.9,1.9,0,0,1-.654,1.082,2.543,2.543,0,0,1-1.758.481l-1.923.041a0.518,0.518,0,0,0-.245-0.041,0.7,0.7,0,0,1-.286-0.041,2.413,2.413,0,0,1-1.351-.479,3.053,3.053,0,0,1-.654-2.329v-14.4c0-.119.041-0.239,0.041-0.36a2.485,2.485,0,0,1,.491-1.484,2.174,2.174,0,0,1,2-.723H166.7a2.582,2.582,0,0,1,1.8.522,2.259,2.259,0,0,1,.654,1.161,2.619,2.619,0,0,1,.041.564c0,0.159.041,0.32,0.041,0.481v3.891h-2.822v-4.454a0.39,0.39,0,0,0-.164-0.36,0.742,0.742,0,0,0-.286-0.24c-0.042,0-.083-0.04-0.123-0.04h-0.123a0.7,0.7,0,0,0-.449.158,0.77,0.77,0,0,0-.206.4v15.482a1.6,1.6,0,0,0,.206.361,0.836,0.836,0,0,0,.449.121,0.626,0.626,0,0,0,.45-0.161,0.5,0.5,0,0,0,.246-0.44v-4.732h0Zm4.457,4.21V240.465a3.3,3.3,0,0,1,.042-0.6,3.009,3.009,0,0,1,.122-0.842,3.126,3.126,0,0,1,.7-1.163,2.325,2.325,0,0,1,1.636-.522h1.923a2.327,2.327,0,0,1,1.635.522,3.136,3.136,0,0,1,.736,1.121,5.984,5.984,0,0,1,.123.844c0,0.241.041,0.439,0.041,0.6v14.64a1.971,1.971,0,0,1-.082.48,2.347,2.347,0,0,1-.532,1.324,2.6,2.6,0,0,1-1.921.561l-1.923.041a0.151,0.151,0,0,0-.123-0.041h-0.082a3.165,3.165,0,0,1-1.595-.442c-0.45-.32-0.7-1.121-0.7-2.445h0Zm2.823-14.719v15.241a0.637,0.637,0,0,0,.2.44,0.515,0.515,0,0,0,.45.161,0.569,0.569,0,0,0,.45-0.161,0.664,0.664,0,0,0,.2-0.481v-15.2a0.63,0.63,0,0,0-.164-0.44,0.85,0.85,0,0,0-.327-0.242h-0.163a0.527,0.527,0,0,0-.45.2,0.555,0.555,0,0,0-.2.4v0.08h0Zm10.389,10.509H186.9v4.891a3.933,3.933,0,0,1-.081.643,2.174,2.174,0,0,1-.655,1.082,2.666,2.666,0,0,1-1.8.481l-1.882.041a0.6,0.6,0,0,0-.286-0.041,0.522,0.522,0,0,1-.247-0.041,2.409,2.409,0,0,1-1.349-.479c-0.45-.321-0.653-1.125-0.653-2.329v-14.4a1.113,1.113,0,0,1,.04-0.36,2.742,2.742,0,0,1,.45-1.484,2.306,2.306,0,0,1,2.045-.723h1.882a2.632,2.632,0,0,1,1.841.522,2.259,2.259,0,0,1,.654,1.161c0,0.2.04,0.363,0.04,0.564v4.372H184.08v-4.454a0.481,0.481,0,0,0-.124-0.36,0.618,0.618,0,0,0-.327-0.24,0.144,0.144,0,0,0-.082-0.04h-0.122a0.629,0.629,0,0,0-.45.158,0.557,0.557,0,0,0-.2.4v15.482a1.516,1.516,0,0,0,.2.361,0.747,0.747,0,0,0,.45.121,0.622,0.622,0,0,0,.449-0.161,0.464,0.464,0,0,0,.206-0.44v-4.732h0Zm5.971,6.817V239.462h-2.128v-1.8H195v1.8h-2.126v17.689h-2.822Zm6.258-2.607V240.465a3.46,3.46,0,0,1,.04-0.6,3.01,3.01,0,0,1,.123-0.842,3.126,3.126,0,0,1,.7-1.163,2.327,2.327,0,0,1,1.636-.522h1.922a2.323,2.323,0,0,1,1.636.522,2.562,2.562,0,0,1,.7,1.121,3.15,3.15,0,0,1,.163.844c0,0.241.041,0.439,0.041,0.6v14.64a2.018,2.018,0,0,1-.081.48,2.368,2.368,0,0,1-.532,1.324,2.6,2.6,0,0,1-1.923.561l-1.922.041a0.15,0.15,0,0,0-.122-0.041H198.6a3.165,3.165,0,0,1-1.6-.442c-0.45-.32-0.695-1.121-0.695-2.445h0Zm2.822-14.719v15.241a0.828,0.828,0,0,0,.163.44,0.663,0.663,0,0,0,.492.161,0.565,0.565,0,0,0,.449-0.161,0.661,0.661,0,0,0,.2-0.481v-15.2a0.63,0.63,0,0,0-.164-0.44,0.836,0.836,0,0,0-.327-0.242h-0.163a0.53,0.53,0,0,0-.451.2,0.554,0.554,0,0,0-.2.4v0.08h0Zm5.6,17.326,2.25-7.5a1.574,1.574,0,0,1-1.105-.481,2.272,2.272,0,0,1-.45-0.8,1.968,1.968,0,0,1-.122-0.642v-7.861a1.572,1.572,0,0,1,.122-0.6,2.17,2.17,0,0,1,.655-1.083,2.741,2.741,0,0,1,1.8-.522h4.377v19.493h-2.823V249.73h-0.123l-1.676,7.421h-2.905Zm4.7-17.689h-0.287a1.22,1.22,0,0,0-.735.2,0.792,0.792,0,0,0-.287.762V247.2a1.109,1.109,0,0,0,.245.722,1.14,1.14,0,0,0,.777.28h0.287v-8.744h0Zm5.154,17.689V237.658h2.822v8.382h1.268v-8.382H221.5v19.493h-2.822v-9.306h-1.268v9.306h-2.822Zm9.2,0V237.658h2.823v9.706l1.636-9.706h2.822v19.493h-2.822v-9.386l-1.636,9.386h-2.823Zm9.122,0V237.658H239.5v1.8h-3.8v6.659h3.8v1.8h-3.8v7.419h3.844v1.806h-6.625ZM175.06,271.942l-0.04-.283v-0.244h-8.642l0.04,0.123,0.083,0.08,0.08,0.123,0.122,0.121,0.122,0.08,0.161,0.122,0.244,0.083,0.283,0.081,0.326,0.081,0.364,0.04h6.938l-0.041-.163Zm2.029,3.25-0.122-.2-0.122-.2-0.082-.243-0.12-.2-0.082-.243-0.081-.245-0.082-.242-0.081-.245-0.04-.245-0.081-.284-0.039-.282-0.042-.286-0.041-.285-0.041-.284-0.04-.284v-0.326l-0.04-.284V270.2l0.04-.324v-0.286l0.04-.283,0.041-.327,0.041-.283,0.042-.244,0.039-.284,0.081-.284,0.04-.2,0.081-.243,0.082-.244,0.081-.245,0.082-.243,0.12-.2,0.082-.2,0.122-.205,0.122-.2,0.12-.2h-0.04l-0.08.081-0.122.122-0.122.08-0.122.122-0.08.123-0.122.163-0.081.162-0.123.163-0.081.163-0.079.161-0.083.2-0.081.2-0.08.2-0.082.2L175.79,268l-0.08.243-0.042.244-0.04.244-0.041.243-0.041.244-0.04.244-0.04.283v0.53l-0.041.242,0.041,0.285v0.529l0.04,0.284,0.04,0.244,0.041,0.244,0.041,0.243,0.04,0.245,0.042,0.242,0.08,0.243,0.041,0.2,0.082,0.2,0.08,0.2,0.081,0.2,0.083,0.2,0.079,0.161,0.122,0.2,0.082,0.161,0.081,0.122,0.122,0.164,0.12,0.121,0.082,0.123,0.122,0.122,0.122,0.081,0.08,0.08,0.122,0.082h0.041l-0.123-.162Zm1.419,0.692-0.122-.122-0.122-.163-0.082-.163-0.12-.161-0.081-.2-0.082-.162-0.082-.2-0.079-.244-0.082-.2-0.08-.2-0.041-.243-0.081-.245-0.041-.244-0.081-.283-0.041-.243-0.041-.285-0.041-.284-0.04-.245V271.7l-0.04-.324v-1.788l0.04-.283v-0.286l0.04-.284,0.041-.244,0.041-.285,0.041-.244,0.081-.244,0.041-.242,0.081-.245,0.041-.2,0.08-.243,0.082-.2,0.079-.2,0.082-.2,0.082-.2,0.081-.161,0.12-.163,0.082-.162,0.122-.161,0.122-.123,0.081-.163,0.041-.04-0.122.082-0.122.04-0.122.081-0.121.123-0.122.079-0.081.124-0.123.161-0.121.122-0.12.161-0.082.164-0.122.163-0.081.2-0.122.2-0.08.2-0.082.2-0.081.2-0.081.244-0.04.245-0.082.2-0.04.243-0.081.285-0.041.243-0.04.285v0.283l-0.041.285-0.04.285v1.177l0.04,0.286,0.041,0.284v0.283l0.04,0.286,0.041,0.243,0.081,0.284,0.04,0.246,0.082,0.242,0.04,0.242,0.081,0.247,0.081,0.2,0.082,0.2,0.08,0.245,0.122,0.163,0.081,0.2,0.122,0.164,0.082,0.2,0.12,0.121,0.121,0.162,0.123,0.122,0.122,0.122,0.081,0.122,0.121,0.082,0.122,0.08,0.122,0.082,0.122,0.04h0.04l-0.081-.04Zm-3.529-5.079v-0.122l-0.122-.04-0.121-.039-0.123-.041-0.12-.043-0.123-.039-0.162-.04-0.121-.042-0.163-.039-0.121-.041-0.163-.082-0.122-.04-0.161-.082-0.122-.082-0.122-.081-0.082-.04h-9.695v0.04l0.039,0.123,0.082,0.08,0.081,0.123,0.123,0.121,0.121,0.121,0.162,0.123,0.244,0.082,0.283,0.08,0.325,0.081,0.365,0.042,0.446,0.039h9.372v-0.162Zm-3.448-2.639,0.039,0.039v0.041h0.042l0.041,0.081,0.081,0.042,0.04,0.039,0.08,0.082,0.081,0.081,0.082,0.082,0.122,0.081,0.122,0.122,0.122,0.082,0.121,0.121,0.162,0.081,0.163,0.122,0.162,0.08,0.2,0.123,0.163,0.081,0.2,0.122,0.2,0.08,0.243,0.125,0.244,0.079,0.244,0.081,0.243,0.122,0.243,0.042v-0.489l0.041-.283,0.04-.163-0.081-.041-0.325-.122-0.365-.122-0.324-.2-0.366-.2-0.324-.2-0.365-.244-0.366-.243-0.323-.285-0.286-.326-0.2-.244H157.371v0.04l0.042,0.124,0.081,0.121,0.08,0.123,0.122,0.121,0.122,0.122,0.162,0.123,0.244,0.081,0.283,0.079,0.325,0.082,0.365,0.042H171.49Zm0.608,1.176-0.162-.161-0.2-.163-0.243-.2-0.2-.2H160.7v0.082l0.081,0.08,0.082,0.082,0.081,0.121L161.1,269.1l0.162,0.082,0.244,0.081,0.283,0.08,0.326,0.083,0.364,0.04H172.3Zm9.087,1.544-0.325.081a1.105,1.105,0,0,0-.364.041c-0.123,0-.244.042-0.366,0.042a0.477,0.477,0,0,1-.324-0.083,0.4,0.4,0,0,1-.244-0.2,0.657,0.657,0,0,1-.162-0.284,0.458,0.458,0,0,1,0-.326,0.464,0.464,0,0,1,.122-0.325,0.628,0.628,0,0,1,.243-0.324,1.547,1.547,0,0,1,.365-0.2l0.487-.083,0.122-.04,0.163-.041,0.161-.081,0.245-.082,0.242-.081h0.041v-0.08l-0.041-.285-0.041-.244-0.039-.244-0.041-.2-0.042-.241-0.079-.244-0.042-.2-0.081-.2-0.081-.2-0.082-.2-0.04-.162-0.08-.2-0.083-.162-0.121-.122-0.081-.162-0.081-.123-0.081-.121-0.082-.082-0.121-.122-0.082-.08-0.08-.042-0.082-.079-0.121-.042h-0.081l-0.08-.04H179.6l-0.121.04H179.4l-0.082.042-0.081.079-0.122.042-0.081.08-0.081.122-0.081.082-0.121.121-0.082.123-0.081.162-0.081.122-0.082.162-0.081.2-0.081.162-0.082.2-0.08.2-0.04.2-0.081.2-0.041.244-0.081.241-0.042.2-0.039.244-0.04.244-0.042.285-0.04.243v0.283l-0.041.285v0.57l-0.039.284,0.039,0.284v0.61l0.041,0.284V271.9l0.04,0.283,0.042,0.285,0.04,0.244,0.039,0.244,0.042,0.243,0.081,0.244,0.041,0.243,0.081,0.2,0.04,0.2,0.08,0.2,0.082,0.2,0.081,0.2,0.081,0.162,0.082,0.162,0.081,0.162,0.081,0.122,0.082,0.164,0.121,0.081,0.081,0.12,0.081,0.083,0.081,0.082,0.122,0.08,0.081,0.04,0.082,0.042,0.081,0.04h0.365l0.081-.04,0.121-.042,0.082-.04,0.08-.08,0.082-.082,0.121-.083,0.082-.12,0.081-.081,0.081-.164,0.081-.122,0.121-.162,0.083-.162,0.04-.162,0.08-.2,0.082-.2,0.081-.2,0.081-.2,0.042-.2,0.079-.243,0.042-.244,0.041-.243,0.039-.244,0.041-.244,0.041-.285,0.04-.283v-0.244l0.041-.284v-0.57l-0.163.042Zm3.245-3-0.323.243-0.366.244-0.365.2-0.365.2-0.326.2-0.322.122-0.326.122-0.324.121-0.243.123-0.244.041-0.2.081-0.162.04-0.121.041-0.406.08a0.66,0.66,0,0,0-.284.164,0.559,0.559,0,0,0-.122.163,0.2,0.2,0,0,0-.04.162,0.077,0.077,0,0,0,0,.123,0.15,0.15,0,0,0,.04.121,1,1,0,0,0,.2.082c0.122,0,.2-0.043.325-0.043s0.2-.039.324-0.039l0.325-.04,0.283-.081,0.326-.082,0.243-.041,0.284-.082,0.243-.122,0.244-.081,0.244-.079,0.242-.125,0.2-.08,0.2-.122,0.2-.081,0.163-.123,0.162-.08,0.162-.122,0.163-.081,0.12-.121,0.163-.082,0.081-.122,0.123-.081,0.081-.082,0.08-.081,0.082-.082,0.081-.039,0.04-.042,0.04-.081h0.042l0.041-.041,0.081-.12h12.251l0.407-.042,0.324-.082,0.243-.079,0.2-.081,0.163-.123,0.163-.122,0.122-.121,0.081-.123,0.04-.121,0.041-.124,0.041-.04H185.324l-0.2.244-0.326.326Zm-2.312,3.817v0.284l-0.04.245-0.041.121h6.735l0.406-.04,0.324-.081,0.244-.081,0.243-.083,0.162-.122,0.162-.08,0.121-.121,0.083-.123,0.04-.08,0.04-.123H182.2Zm25.5-36.8a31.909,31.909,0,0,0-58.268,0H114.006V261.13h35.388a31.934,31.934,0,0,0,58.268,0H243.01V234.9H207.662Zm-27.028-9.877h1.291v2.3h0.016l1.877-2.3h1.518l-2.2,2.507,2.323,2.976h-1.58l-1.94-2.679h-0.016v2.679h-1.291v-5.483Zm-6.47-.157c1.94,0,2.433,1.214,2.472,2.021h-1.267a1.024,1.024,0,0,0-1.142-.955c-0.29,0-1.307.055-1.307,1.887,0,1.034.469,1.779,1.346,1.779a1.094,1.094,0,0,0,1.15-1.027H176.7a2.217,2.217,0,0,1-2.488,2.092c-1.4,0-2.683-.643-2.683-2.8C171.528,224.975,173.64,224.865,174.164,224.865Zm25.968,41.919v0.162l-0.041.121-0.04.163-0.04.163-0.083.163-0.12.161-0.162.165-0.163.121-0.244.163-0.283.121-0.284.121-0.366.082-0.445.081h-1.016v0.041l-0.039.162-0.041.122-0.122.163-0.122.122-0.121.161-0.2.164-0.243.121-0.283.081-0.285.122-0.405.043-0.406.079h-0.405v0.042l-0.041.121-0.081.163-0.082.163-0.122.163-0.162.161-0.161.163-0.245.122-0.284.122-0.283.122-0.406.081-0.406.04h-0.771v0.04l-0.04.122-0.042.164-0.12.162-0.122.161-0.123.122-0.2.163-0.242.122-0.244.123-0.324.121-0.406.04-0.407.081h-6.814l-0.041.2-0.08.283-0.041.244-0.081.245-0.041.2-0.082.242-0.081.2-0.08.244-0.083.162-0.079.2-0.082.2-0.081.161-0.123.163-0.08.163-0.123.122-0.121.122-0.121.121-0.122.123-0.122.081-0.122.082-0.121.04-0.163.04-0.162.04h-0.121l-0.041.041h-0.081l-0.081.042h-0.163l-0.081.04h-0.082l-0.161-.04h-0.2l-0.161-.042-0.162-.081-0.164-.08-0.161-.082-0.162-.081v-0.042h-0.164l-0.161-.039-0.162-.042-0.122-.04-0.163-.081-0.162-.082-0.121-.08-0.163-.123-0.12-.122-0.122-.121-0.123-.122-0.121-.164-0.12-.162-0.124-.162-0.12-.2-0.082-.163-0.121-.2-0.082-.2-0.082-.2-0.08-.242-0.081-.2L175.3,273.2l-0.041-.243-0.041-.123h-7.059l-0.406-.081-0.365-.04-0.324-.121-0.284-.123-0.245-.122-0.161-.163-0.162-.122-0.122-.161-0.081-.162-0.082-.164-0.039-.122v-0.04H165.12l-0.405-.04-0.367-.081-0.323-.122-0.283-.122-0.244-.122-0.2-.163-0.121-.161-0.122-.163-0.082-.163-0.081-.163-0.04-.121v-0.042h-0.406l-0.406-.079-0.365-.043-0.324-.122-0.284-.081-0.2-.121-0.2-.164-0.161-.161-0.122-.122-0.082-.163-0.081-.122-0.041-.162v-0.041h-1.014l-0.405-.081-0.405-.082-0.326-.121-0.243-.121L157.533,268l-0.2-.121-0.162-.165-0.082-.161-0.121-.163-0.041-.163-0.041-.163v-0.121l-0.039-.08V266.54h15.09l0.366,0.406,0.284,0.325,0.284,0.243,0.325,0.287,0.324,0.16,0.325,0.2,0.324,0.2,0.366,0.162,0.284,0.122,0.283,0.121,0.041-.162,0.04-.243,0.082-.244,0.041-.243,0.081-.2,0.081-.2,0.08-.245,0.082-.2,0.082-.2,0.121-.2,0.082-.162,0.12-.2,0.124-.165,0.12-.161,0.121-.122,0.123-.163,0.122-.12,0.12-.124,0.163-.122,0.121-.08,0.162-.081,0.163-.082,0.122-.04,0.162-.039,0.161-.044h0.042l0.122-.081,0.162-.121,0.161-.081,0.164-.082,0.162-.04,0.161-.042,0.2-.04h0.446l0.041,0.04h0.081l0.081,0.042h0.081l0.081,0.04h0.162l0.163,0.041,0.121,0.081,0.122,0.082,0.122,0.08,0.122,0.125,0.121,0.079,0.121,0.163,0.123,0.123,0.08,0.161,0.123,0.162,0.081,0.163,0.082,0.161,0.079,0.2,0.083,0.2,0.08,0.2,0.081,0.2,0.082,0.243,0.041,0.2,0.081,0.245,0.041,0.242,0.08,0.244,0.041,0.244,0.04,0.285,0.041,0.2,0.081-.041,0.324-.122,0.325-.162,0.324-.2,0.326-.2,0.364-.16,0.285-.287,0.323-.243,0.285-.325,0.325-.406h15.051v0.244Zm41.674-6.859H115.212v-23.82H241.806v23.82Zm-56.076,8.728-0.08.041-0.042.08-0.081.082-0.123.082-0.08.08-0.122.122-0.121.081-0.163.121-0.122.083-0.08.04h9.818l0.406-.04,0.323-.083,0.284-.08,0.2-.081,0.163-.082,0.161-.122,0.121-.121,0.082-.082,0.041-.08,0.04-.082h-10.59Zm-1.826,1.341-0.244.121-0.2.082-0.244.122-0.242.08-0.285.121-0.243.084-0.244.039v0.324h9.21l0.446-.039,0.405-.042,0.285-.081,0.284-.08,0.243-.082,0.163-.123,0.121-.121,0.121-.121,0.081-.123,0.042-.08,0.041-.123,0.039-.04h-9.7Z" transform="translate(-114 -216)"/>
</svg>
