<!DOCTYPE svg PUBLIC "-//W3C//DTD SVG 1.1//EN" "http://www.w3.org/Graphics/SVG/1.1/DTD/svg11.dtd">
<svg version="1.1" id="Layer_1" xmlns="http://www.w3.org/2000/svg" xmlns:xlink="http://www.w3.org/1999/xlink" x="0px" y="0px"
	 viewBox="0 0 87 56" enable-background="new 0 0 87 56" xml:space="preserve">
<polygon fill="#0058A0" points="57.1,47 59.2,35.2 62.4,35.2 60.4,47 "/>
<path fill="#0058A0" d="M72,35.5c-0.6-0.2-1.6-0.5-2.9-0.5c-3.2,0-5.4,1.6-5.4,3.9c0,1.7,1.6,2.6,2.8,3.2c1.3,0.6,1.7,0.9,1.7,1.5
	c0,0.8-1,1.2-1.9,1.2c-1.3,0-2-0.2-3-0.6L62.8,44l-0.4,2.6c0.7,0.3,2.1,0.6,3.6,0.6c3.4,0,5.6-1.6,5.6-4c0-1.3-0.8-2.4-2.7-3.2
	c-1.1-0.5-1.8-0.9-1.8-1.4c0-0.5,0.6-1,1.8-1c1.1,0,1.8,0.2,2.4,0.5l0.3,0.1L72,35.5L72,35.5z"/>
<path fill="#0058A0" d="M80.3,35.3h-2.5c-0.8,0-1.4,0.2-1.7,1l-4.8,10.8h3.4c0,0,0.6-1.5,0.7-1.8c0.4,0,3.6,0,4.1,0
	c0.1,0.4,0.4,1.8,0.4,1.8h3L80.3,35.3L80.3,35.3z M76.3,42.9c0.3-0.7,1.3-3.3,1.3-3.3c0,0,0.3-0.7,0.4-1.1l0.2,1
	c0,0,0.6,2.8,0.8,3.4H76.3L76.3,42.9z"/>
<path fill="#0058A0" d="M54.5,35.3l-3.2,8L51,41.7c-0.6-1.9-2.4-3.9-4.5-5L49.4,47h3.4l5.1-11.8H54.5L54.5,35.3z"/>
<path fill="#FAA61A" d="M48.4,35.2h-5.2l0,0.3c4,1,6.7,3.3,7.8,6.2l-1.1-5.4C49.6,35.5,49.1,35.3,48.4,35.2L48.4,35.2z"/>
<polygon fill="#0058A0" points="41.3,18.7 44.7,18.7 42.6,32.1 39.2,32.1 "/>
<path fill="#0058A0" d="M29.3,18.7h5.3c3.4,0,4.2,1.9,3.9,4.3c-0.3,1.9-1.7,3.2-3.5,3.7l3.3,5.5H34l-2.5-5.3l-0.8,5.3h-3.5
	L29.3,18.7L29.3,18.7z M32.4,21.4l-0.5,3.4h1c1,0,1.9-0.8,2-1.7l0,0c0.2-0.9-0.5-1.7-1.5-1.7L32.4,21.4L32.4,21.4z"/>
<polygon fill="#0058A0" points="57.1,18.7 60.5,18.7 58.4,32.1 54.9,32.1 "/>
<polygon fill="#0058A0" points="63.1,18.7 70.7,18.7 70.3,21.6 66.1,21.6 65.8,23.9 69.7,23.9 69.2,26.8 65.3,26.8 64.9,29.2 
	69.1,29.2 68.6,32.1 61,32.1 "/>
<polygon fill="#0058A0" points="19.7,18.7 27.3,18.7 26.8,21.6 22.7,21.6 22.3,23.9 26.2,23.9 25.8,26.8 21.9,26.8 21.5,29.2 
	25.6,29.2 25.1,32.1 17.6,32.1 "/>
<polygon fill="#0058A0" points="47.4,18.7 55,18.7 54.6,21.6 50.4,21.6 50,23.9 53.8,23.9 53.4,26.8 49.5,26.8 48.7,32.1 45.2,32.1 
	"/>
<path fill="#0058A0" d="M77.3,18.7h-4.5l-2.1,13.4h4.5c4.3,0,7.7-2.9,8.3-6.7C83.8,22.8,82.6,18.7,77.3,18.7z M79.8,25.3
	c-0.4,2.4-2.1,3.9-4.4,3.9c-0.3,0-0.6,0-0.9,0l1.2-7.6c0.3,0,0.5,0,0.7,0C79.1,21.6,80.1,23.5,79.8,25.3z"/>
<path fill="#0058A0" d="M3.5,16.9h6.4l0.8,9.7c4.2-7.3,8.5-14.4,12.9-21.3h2.1c-4.6,8.8-9.1,17.7-13.5,26.8H7.4L6.3,21.4
	c-0.3-2.7-0.8-3.8-2.8-4.1V16.9L3.5,16.9z"/>
<polygon fill="#FAA61A" points="5.9,11.3 11.4,13.7 11.8,19.7 12.2,19.7 17.2,11.4 17.2,10.9 5.9,10.9 "/>
<polygon fill="#0058A0" points="34.9,39.7 37.6,39.7 38.8,43.5 41.1,39.7 43.7,39.7 36.9,50.7 34.3,50.7 37.2,46 "/>
<path fill="#0058A0" d="M32.1,39.5c-0.9,0-1.7,0.4-2.3,1l0.8-5.3h-2.2L26.6,47h2.2l0.1-0.8c0.4,0.7,1.1,1.1,1.9,1.1
	c1.8,0,3.5-1.7,3.8-3.9C35.1,41.3,33.9,39.5,32.1,39.5z M32.4,43.4c-0.1,0.9-0.9,1.7-1.7,1.7c-0.8,0-1.4-0.8-1.3-1.7
	c0.1-0.9,0.9-1.7,1.7-1.7C31.9,41.7,32.5,42.5,32.4,43.4z"/>
</svg>
